<svg xmlns="http://www.w3.org/2000/svg" width="480" height="226" class="">
    <defs>
        <style/>
    </defs>
    <style>@keyframes animation-gauge{0%{stroke-dasharray:0 329}}@keyframes animation-rainbow{0%,to{color:#7f00ff;fill:#7f00ff}14%{color:#a933ff;fill:#a933ff}29%{color:#007fff;fill:#007fff}43%{color:#00ff7f;fill:#00ff7f}57%{color:#ff0;fill:#ff0}71%{color:#ff7f00;fill:#ff7f00}86%{color:red;fill:red}}svg{font-family:-apple-system,BlinkMacSystemFont,Segoe UI,Helvetica,Arial,sans-serif,Apple Color Emoji,Segoe UI Emoji;color:#777}h2,h3{margin:8px 0 2px;padding:0;color:#0366d6;font-weight:400}h2 svg,h3 svg{fill:currentColor}h2{font-size:16px}h3,svg{font-size:14px}section&gt;.field{margin-left:5px;margin-right:5px}.field{display:flex;align-items:center;margin-bottom:2px;white-space:nowrap}.field.wrap,.row{flex-wrap:wrap}.field svg{margin:0 8px;fill:#959da5;flex-shrink:0}.field.error{color:#cb2431}.field.error svg{fill:#cb2431}.row{display:flex}.row section{flex:1 1 0}.column{display:flex;flex-direction:column;align-items:center}.center{justify-content:center}.horizontal-wrap{flex-wrap:wrap}.no-wrap{white-space:nowrap}#metrics-end,.fill-width{width:100%}svg.bar{margin:4px 0}.field.language{margin:0 8px;flex-grow:0}:root{--color-calendar-graph-day-bg:#ebedf0;--color-calendar-graph-day-border:rgba(27,31,35,0.06);--color-calendar-graph-day-L1-bg:#9be9a8;--color-calendar-graph-day-L2-bg:#40c463;--color-calendar-graph-day-L3-bg:#30a14e;--color-calendar-graph-day-L4-bg:#216e39;--color-calendar-halloween-graph-day-L1-bg:#ffee4a;--color-calendar-halloween-graph-day-L2-bg:#ffc501;--color-calendar-halloween-graph-day-L3-bg:#fe9600;--color-calendar-halloween-graph-day-L4-bg:#03001c;--color-calendar-winter-graph-day-L1-bg:#0a3069;--color-calendar-winter-graph-day-L2-bg:#0969da;--color-calendar-winter-graph-day-L3-bg:#54aeff;--color-calendar-winter-graph-day-L4-bg:#b6e3ff;--color-calendar-graph-day-L4-border:rgba(27,31,35,0.06);--color-calendar-graph-day-L3-border:rgba(27,31,35,0.06);--color-calendar-graph-day-L2-border:rgba(27,31,35,0.06);--color-calendar-graph-day-L1-border:rgba(27,31,35,0.06)}</style>
    <style/>
    <foreignObject x="0" y="0" width="100%" height="100%">
        <div xmlns="http://www.w3.org/1999/xhtml" xmlns:xlink="http://www.w3.org/1999/xlink" class="items-wrapper">
            <section>
                <h2 class="field">
                    <svg xmlns="http://www.w3.org/2000/svg" viewBox="0 0 16 16" width="16" height="16">
                        <path fill-rule="evenodd" d="M1.5 2.75a.25.25 0 01.25-.25h12.5a.25.25 0 01.25.25v8.5a.25.25 0 01-.25.25h-6.5a.75.75 0 00-.53.22L4.5 14.44v-2.19a.75.75 0 00-.75-.75h-2a.25.25 0 01-.25-.25v-8.5zM1.75 1A1.75 1.75 0 000 2.75v8.5C0 12.216.784 13 1.75 13H3v1.543a1.457 1.457 0 002.487 1.03L8.061 13h6.189A1.75 1.75 0 0016 11.25v-8.5A1.75 1.75 0 0014.25 1H1.75zm5.03 3.47a.75.75 0 010 1.06L5.31 7l1.47 1.47a.75.75 0 01-1.06 1.06l-2-2a.75.75 0 010-1.06l2-2a.75.75 0 011.06 0zm2.44 0a.75.75 0 000 1.06L10.69 7 9.22 8.47a.75.75 0 001.06 1.06l2-2a.75.75 0 000-1.06l-2-2a.75.75 0 00-1.06 0z"/>
                    </svg>
                    26 Languages
                </h2>
            </section>
            <section class="column">
                <h3 class="field">Most used languages</h3>
                <svg class="bar" xmlns="http://www.w3.org/2000/svg" width="460" height="8">
                    <mask id="languages-bar">
                        <rect x="0" y="0" width="460" height="8" fill="white" rx="5"/>
                    </mask>
                    <rect mask="url(#languages-bar)" x="0" y="0" width="0" height="8" fill="#d1d5da"/>
                    <rect mask="url(#languages-bar)" x="0" y="0" width="151.0832091934454" height="8" fill="#3572A5"/>
                    <rect mask="url(#languages-bar)" x="151.0832091934454" y="0" width="118.82953819961693" height="8" fill="#f1e05a"/>
                    <rect mask="url(#languages-bar)" x="269.9127473930624" y="0" width="68.24714478257786" height="8" fill="#555555"/>
                    <rect mask="url(#languages-bar)" x="338.1598921756402" y="0" width="39.30197914449883" height="8" fill="#89e051"/>
                    <rect mask="url(#languages-bar)" x="377.46187132013904" y="0" width="39.140242604809536" height="8" fill="#a52a22"/>
                    <rect mask="url(#languages-bar)" x="416.6021139249486" y="0" width="28.762147974746398" height="8" fill="#b07219"/>
                    <rect mask="url(#languages-bar)" x="445.36426189969495" y="0" width="9.467262538128681" height="8" fill="#7e7eff"/>
                    <rect mask="url(#languages-bar)" x="454.83152443782365" y="0" width="5.168475562176349" height="8" fill="#3A4E3A"/>
                </svg>
                <div class="field center horizontal-wrap fill-width">
                    <div class="field center no-wrap language">
                        <svg xmlns="http://www.w3.org/2000/svg" viewBox="0 0 16 16" width="16" height="16">
                            <path fill="#3572A5" fill-rule="evenodd" d="M8 4a4 4 0 100 8 4 4 0 000-8z"/>
                        </svg>
                        Python
                    </div>
                    <div class="field center no-wrap language">
                        <svg xmlns="http://www.w3.org/2000/svg" viewBox="0 0 16 16" width="16" height="16">
                            <path fill="#f1e05a" fill-rule="evenodd" d="M8 4a4 4 0 100 8 4 4 0 000-8z"/>
                        </svg>
                        JavaScript
                    </div>
                    <div class="field center no-wrap language">
                        <svg xmlns="http://www.w3.org/2000/svg" viewBox="0 0 16 16" width="16" height="16">
                            <path fill="#555555" fill-rule="evenodd" d="M8 4a4 4 0 100 8 4 4 0 000-8z"/>
                        </svg>
                        C
                    </div>
                    <div class="field center no-wrap language">
                        <svg xmlns="http://www.w3.org/2000/svg" viewBox="0 0 16 16" width="16" height="16">
                            <path fill="#89e051" fill-rule="evenodd" d="M8 4a4 4 0 100 8 4 4 0 000-8z"/>
                        </svg>
                        Shell
                    </div>
                    <div class="field center no-wrap language">
                        <svg xmlns="http://www.w3.org/2000/svg" viewBox="0 0 16 16" width="16" height="16">
                            <path fill="#a52a22" fill-rule="evenodd" d="M8 4a4 4 0 100 8 4 4 0 000-8z"/>
                        </svg>
                        Jinja
                    </div>
                    <div class="field center no-wrap language">
                        <svg xmlns="http://www.w3.org/2000/svg" viewBox="0 0 16 16" width="16" height="16">
                            <path fill="#b07219" fill-rule="evenodd" d="M8 4a4 4 0 100 8 4 4 0 000-8z"/>
                        </svg>
                        Java
                    </div>
                    <div class="field center no-wrap language">
                        <svg xmlns="http://www.w3.org/2000/svg" viewBox="0 0 16 16" width="16" height="16">
                            <path fill="#7e7eff" fill-rule="evenodd" d="M8 4a4 4 0 100 8 4 4 0 000-8z"/>
                        </svg>
                        Nix
                    </div>
                    <div class="field center no-wrap language">
                        <svg xmlns="http://www.w3.org/2000/svg" viewBox="0 0 16 16" width="16" height="16">
                            <path fill="#3A4E3A" fill-rule="evenodd" d="M8 4a4 4 0 100 8 4 4 0 000-8z"/>
                        </svg>
                        Cuda
                    </div>
                </div>
            </section>
            <section>
                <h2 class="field">
                    <svg xmlns="http://www.w3.org/2000/svg" viewBox="0 0 16 16" width="16" height="16">
                        <path fill-rule="evenodd" d="M1 2.5A2.5 2.5 0 013.5 0h8.75a.75.75 0 01.75.75v3.5a.75.75 0 01-1.5 0V1.5h-8a1 1 0 00-1 1v6.708A2.492 2.492 0 013.5 9h3.25a.75.75 0 010 1.5H3.5a1 1 0 100 2h5.75a.75.75 0 010 1.5H3.5A2.5 2.5 0 011 11.5v-9zm13.23 7.79a.75.75 0 001.06-1.06l-2.505-2.505a.75.75 0 00-1.06 0L9.22 9.229a.75.75 0 001.06 1.061l1.225-1.224v6.184a.75.75 0 001.5 0V9.066l1.224 1.224z"/>
                    </svg>
                    Notable contributions
                </h2>
                <div class="row fill-width largeable-width-half">
                    <section>
                        <div class="field">
                            <svg xmlns="http://www.w3.org/2000/svg" viewBox="0 0 16 16" width="16" height="16">
                                <path fill-rule="evenodd" d="M8 1.5a6.5 6.5 0 100 13 6.5 6.5 0 000-13zM0 8a8 8 0 1116 0A8 8 0 010 8zm6.5-.25A.75.75 0 017.25 7h1a.75.75 0 01.75.75v2.75h.25a.75.75 0 010 1.5h-2a.75.75 0 010-1.5h.25v-2h-.25a.75.75 0 01-.75-.75zM8 6a1 1 0 100-2 1 1 0 000 2z"/>
                            </svg>
                            No recent contributions matching filters found
                        </div>
                    </section>
                </div>
            </section>
            <section class="habits">
                <h2 class="field wrap">
                    <svg xmlns="http://www.w3.org/2000/svg" viewBox="0 0 16 16" width="16" height="16">
                        <path fill-rule="evenodd" d="M8 1.5c-2.363 0-4 1.69-4 3.75 0 .984.424 1.625.984 2.304l.214.253c.223.264.47.556.673.848.284.411.537.896.621 1.49a.75.75 0 01-1.484.211c-.04-.282-.163-.547-.37-.847a8.695 8.695 0 00-.542-.68c-.084-.1-.173-.205-.268-.32C3.201 7.75 2.5 6.766 2.5 5.25 2.5 2.31 4.863 0 8 0s5.5 2.31 5.5 5.25c0 1.516-.701 2.5-1.328 3.259-.095.115-.184.22-.268.319-.207.245-.383.453-.541.681-.208.3-.33.565-.37.847a.75.75 0 01-1.485-.212c.084-.593.337-1.078.621-1.489.203-.292.45-.584.673-.848.075-.088.147-.173.213-.253.561-.679.985-1.32.985-2.304 0-2.06-1.637-3.75-4-3.75zM6 15.25a.75.75 0 01.75-.75h2.5a.75.75 0 010 1.5h-2.5a.75.75 0 01-.75-.75zM5.75 12a.75.75 0 000 1.5h4.5a.75.75 0 000-1.5h-4.5z"/>
                    </svg>
                    Recent coding habits
                </h2>
                <div class="row">
                    <section>
                        <div class="field error">
                            <svg xmlns="http://www.w3.org/2000/svg" viewBox="0 0 16 16" width="16" height="16">
                                <path fill-rule="evenodd" d="M2.343 13.657A8 8 0 1113.657 2.343 8 8 0 012.343 13.657zM6.03 4.97a.75.75 0 00-1.06 1.06L6.94 8 4.97 9.97a.75.75 0 101.06 1.06L8 9.06l1.97 1.97a.75.75 0 101.06-1.06L9.06 8l1.97-1.97a.75.75 0 10-1.06-1.06L8 6.94 6.03 4.97z"/>
                            </svg>
                            Unexpected error
                        </div>
                    </section>
                </div>
            </section>
        </div>
        <div xmlns="http://www.w3.org/1999/xhtml" id="metrics-end"></div>
    </foreignObject>
</svg>